<?xml version="1.0" encoding="UTF-8"?>
<svg xmlns="http://www.w3.org/2000/svg" viewBox="0 0 640 360">
  <defs>
    <style>
      .background {
        fill: #67daff;
        animation: background-animation 4s infinite;  
      }

      @keyframes background-animation {
        0% {fill: #67daff; }
        33% { fill: #f92672; }
        66% { fill: #a6e22e; }
        100% { fill: #67daff;  }
      }

      .text {
        fill: #000000;
        animation: text-animation 2s infinite;  
      }

      @keyframes text-animation {
        0% {fill: #000000; }
        50% { fill: #ffffff; }
        100% { fill: #000000;  }
      }
    </style>
  </defs>
  <rect class="background" width="640" height="360" style="fill: #fff;"/>
  <g class="text">
    <path d="M151.99976,196.13965l6.11963,16.79883-21.71924,20.15918-8.99951-15.83887c2.04004-2.40039,2.52002-3.95996,2.52002-7.7998l.24023-30.83887h-9v-17.51953h25.55908v40.79883l5.27979-5.75977ZM139.04028,156.18066c-3.95996-5.2793-12.11963-15.95898-16.43945-21.23828l13.79932-9.83984c4.32031,4.7998,12.35986,14.39941,16.7998,20.51855l-14.15967,10.55957ZM219.43726,236.69824c-5.75977-4.44043-16.55957-12.47949-23.99902-18-9.59961,6.83984-20.75928,12.83984-33.23877,18.23926l-9.11963-15.59863c26.87891-9.48047,45.11816-22.67969,61.4375-44.99902l13.19922,8.87988c-5.15967,8.16016-11.2793,15.47949-18.23926,22.0791,7.31982,5.04004,17.03955,11.63965,21.23926,14.75977l-11.2793,14.63965ZM156.55933,169.38086c4.43994-2.75977,10.91992-9.83984,15.59961-16.67969h-17.75928v-16.31934h27.59912c-.95996-3.35938-1.91992-6.71973-2.76025-9.11914l20.51904-2.52051c1.08008,3.95996,1.91992,7.08008,3.24023,11.63965h26.99902v16.31934h-24.47949l13.55957,7.55957c-11.51953,20.39941-31.91846,39.71875-54.83789,52.55762l-8.63965-14.15918c9-5.15918,16.19971-9.83984,22.31934-14.63965l-17.63916,1.2002-3.72021-15.83887ZM194.5979,166.98047c3.23975-4.19922,6.35986-8.87988,9.47998-14.2793h-11.51953c-4.32031,6.35938-9.47998,12.35938-12.23975,15.59961l14.2793-1.32031Z"/>
    <path d="M307.15845,193.01953c7.07959,12.11914,21.11914,20.2793,42.47754,24.95898l-8.63867,17.75977c-20.15967-5.40039-35.75879-14.75977-45.23877-28.55957-8.63965,12.71973-23.75879,22.67969-44.99805,29.15918l-9.23926-17.03906c26.03857-8.28027,37.07812-17.39941,41.63818-26.2793h-39.11865v-17.51953h41.99854v-12.71875h-37.19873v-17.04004h20.15918c-3.59961-5.2793-6.83984-9.95898-10.55957-14.63867l15.47949-8.04004c5.27979,6.35938,11.15967,13.91895,15.11914,19.31934l-6.71973,3.35938h16.91943c6-7.55957,12.71973-17.15918,16.19971-22.67871l17.15869,8.51953c-2.87891,3.83984-6.95898,9.23926-10.91943,14.15918h20.27881v17.04004h-37.55811v12.71875h42.23779v17.51953h-39.47754Z"/>
    <path d="M366.80005,129.0625h99.47656v18.11914l-39.47852,28.0791v42.95801c0,13.0791-5.2793,17.15918-20.39844,17.15918h-20.51953l-3.35938-20.2793h18.11914c6,0,6.71875-.36035,6.71875-5.75977v-43.43848l28.67969-18.71875h-69.23828v-18.11914Z"/>
    <path d="M496.39966,198.05957l-3.24023-63.59766h25.67969l-3.24023,63.59766h-19.19922ZM493.99927,229.25781v-23.99902h24v23.99902h-24Z"/>
  </g>
</svg>